<?xml version="1.0" encoding="utf-8"?>
<!-- Made by Szalik  -->
<svg version="1.1" id="Warstwa_1" xmlns="http://www.w3.org/2000/svg" xmlns:xlink="http://www.w3.org/1999/xlink" x="0px" y="0px" xml:space="preserve">
<g>
	<g>
		<path d="M640.22,200.66c-27.04,0-54.13,0-81.15,0c-0.55,2.03-0.61,11.14-0.11,13.67c22.49,0,45.01,0,67.48,0
			c0.54,1.93,0.63,24.61,0.12,27.33c-22.49,0-45.01,0-67.81,0c-0.25,2.38-0.1,4.59-0.13,6.79c-0.03,2.15-0.01,4.31-0.01,6.78
			c2.78,0.16,5.47,0.06,8.15,0.08c2.72,0.02,5.44,0,8.16,0c2.72,0,5.44,0,8.16,0c2.72,0,5.44,0,8.16,0s5.44,0,8.16,0
			c2.72,0,5.44,0,8.16,0s5.44,0,8.16,0c2.72,0,5.44,0,8.16,0s5.44,0,8.16,0c2.71,0,5.42,0,8.09,0c0.53,1.98,0.59,24.88,0.1,27.23
			c-36.19,0-72.41,0-108.79,0c0-36.35,0-72.62,0-109.04c36.25,0,72.46,0,108.68,0C640.67,175.15,640.79,197.85,640.22,200.66z" fill="white"/>
		<path d="M230.4,210.95c0-1.55,0.04-2.73-0.01-3.92c-0.15-3.91-1.99-5.87-5.85-6.25c-0.87-0.09-1.76-0.08-2.64-0.08
			c-12.56,0-25.12-0.01-37.68,0.01c-1.28,0-2.57,0.04-3.82,0.26c-2.25,0.4-3.75,1.74-4.27,4c-0.23,1-0.36,2.05-0.37,3.08
			c-0.02,13.28-0.02,26.56-0.01,39.84c0,0.64,0,1.29,0.08,1.92c0.48,3.49,2.37,5.25,5.88,5.45c1.44,0.08,2.88,0.05,4.32,0.05
			c11.92,0,23.84,0,35.76,0c1.04,0,2.08,0.01,3.12-0.08c3.02-0.28,5.03-1.94,5.32-4.91c0.27-2.75,0.06-5.54,0.06-8.55
			c-12.51,0-24.87,0-37.43,0c-2.28-9.14-4.53-18.1-6.82-27.26c23.99,0,47.7,0,71.56,0c0.05,0.72,0.14,1.33,0.14,1.95
			c0.01,11.04,0.11,22.08-0.07,33.12c-0.06,3.73-0.53,7.52-1.36,11.15c-2.65,11.56-10.09,18.41-21.59,20.81
			c-3.19,0.67-6.49,1.02-9.75,1.05c-14.56,0.11-29.12,0.05-43.68,0.05c-3.86,0-7.65-0.46-11.39-1.43
			c-10.87-2.81-17.61-9.72-20.1-20.61c-0.81-3.56-1.3-7.27-1.34-10.92c-0.15-14.4-0.15-28.8,0-43.2c0.04-3.65,0.52-7.36,1.32-10.92
			c2.58-11.43,9.81-18.34,21.19-20.99c4-0.93,8.07-1.19,12.15-1.19c13.28-0.02,26.56-0.02,39.84,0c4,0.01,7.98,0.26,11.92,1.13
			c12.17,2.7,19.38,10.23,21.86,22.35c0.7,3.43,1.18,6.91,0.88,10.68C248.64,208.66,239.7,209.78,230.4,210.95z" fill="white"/>
		<path d="M654.47,248.51c9-1.13,17.93-2.25,27.2-3.42c0,1.05-0.04,1.9,0.01,2.75c0.06,1.03,0.12,2.08,0.34,3.09
			c0.53,2.49,2.2,3.83,4.63,4.22c0.94,0.15,1.91,0.14,2.87,0.14c12.96,0.01,25.92,0.01,38.87,0c0.8,0,1.6,0,2.4-0.07
			c3.12-0.29,5-2.03,5.43-5.11c0.13-0.94,0.13-1.92,0.04-2.87c-0.33-3.3-2.29-5.2-5.6-5.48c-0.87-0.07-1.76-0.05-2.64-0.05
			c-13.28-0.01-26.56,0.09-39.83-0.07c-3.89-0.05-7.84-0.49-11.64-1.33c-11.33-2.52-18.3-9.64-20.9-20.94
			c-1.83-7.91-1.82-15.87,0.02-23.78c2.65-11.42,9.8-18.36,21.18-21.02c4.08-0.96,8.22-1.2,12.39-1.21c13.2-0.02,26.4-0.02,39.59,0
			c4.49,0.01,8.94,0.31,13.32,1.45c11.5,2.98,18.15,10.49,20.52,21.96c0.71,3.44,1.16,6.92,0.93,10.75
			c-8.96,1.13-17.88,2.25-27.13,3.41c-0.05-0.96-0.06-1.79-0.13-2.62c-0.1-1.19-0.13-2.4-0.41-3.55c-0.52-2.16-2.03-3.4-4.18-3.8
			c-1.09-0.2-2.23-0.27-3.34-0.27c-12.88-0.02-25.76-0.01-38.63-0.01c-0.8,0-1.6,0.02-2.39,0.11c-3.45,0.38-5.19,2.04-5.6,5.47
			c-0.12,1.01-0.06,2.09,0.12,3.09c0.52,2.89,2,4.34,4.89,4.83c1.02,0.17,2.07,0.16,3.11,0.16c13.28,0.01,26.56,0.02,39.83,0
			c4.18,0,8.3,0.4,12.35,1.43c10.76,2.75,17.53,9.5,20.17,20.27c2.02,8.21,2.01,16.48,0.04,24.71
			c-2.74,11.43-10.05,18.28-21.44,20.71c-3.34,0.71-6.81,1.06-10.22,1.09c-14.4,0.12-28.79,0.05-43.19,0.05
			c-4.5,0-8.92-0.57-13.24-1.9c-9.2-2.84-15.14-8.91-17.96-18.07c-1.26-4.08-1.69-8.29-1.88-12.53
			C654.33,249.66,654.41,249.2,654.47,248.51z" fill="white"/>
		<path d="M394.81,173.54c0.64-0.06,1.26-0.17,1.88-0.18c5.12-0.01,10.24,0.05,15.35-0.04c1.51-0.03,2.52,0.54,3.54,1.57
			c12.81,12.86,25.66,25.69,38.48,38.54c0.62,0.62,1.1,1.38,1.76,2.23c0.95-0.87,1.59-1.42,2.19-2.01
			c12.84-12.83,25.7-25.65,38.48-38.53c1.3-1.31,2.61-1.83,4.41-1.79c4.64,0.1,9.28,0.03,13.91,0.03c0.85,0,1.71,0,2.69,0
			c0,36.52,0,72.73,0,109.1c-8.96,0-17.88,0-27.14,0c-0.14-6.8-0.05-13.64-0.06-20.47c-0.02-6.88,0-13.75,0-20.63
			c0-6.84,0-13.67,0-20.51c-0.19-0.08-0.38-0.15-0.57-0.23c-11.15,11.15-22.3,22.3-33.58,33.58c-11.32-11.32-22.5-22.49-33.67-33.66
			c-0.15,0.05-0.31,0.11-0.46,0.16c0,20.55,0,41.11,0,61.8c-9.22,0-18.14,0-27.23,0C394.81,246.2,394.81,209.94,394.81,173.54z" fill="white"/>
		<path d="M-170.27,282.44c-2.32-4.36-4.68-8.79-7.13-13.38c-0.87,0-1.74,0-2.61,0c-13.83,0-27.66,0.05-41.5-0.06
			c-2.05-0.02-3.17,0.54-4.06,2.38c-1.81,3.74-3.85,7.36-5.83,11.11c-10.22,0-20.39,0-30.96,0c20.54-38.63,40.93-76.97,61.53-115.7
			c20.57,38.68,40.97,77.03,61.38,115.41C-141.3,282.72-166.56,282.89-170.27,282.44z M-191.98,241.65
			c-3.01-5.66-5.83-10.94-8.86-16.62c-2.97,5.79-6.03,10.96-8.65,16.62C-203.57,241.65-198.07,241.65-191.98,241.65z" fill="white"/>
		<path d="M326.22,166.79c20.63,38.79,41.02,77.13,61.55,115.73c-10.52,0-20.64,0-30.95,0c-2.33-4.37-4.69-8.8-7.17-13.46
			c-0.71,0-1.49,0-2.28,0c-14.07,0-28.14,0.03-42.22-0.04c-1.74-0.01-2.72,0.48-3.51,2.08c-1.9,3.87-4.01,7.63-6.03,11.44
			c-10.24,0-20.37,0-30.95,0C285.19,243.93,305.58,205.59,326.22,166.79z M317.45,241.55c6.1,0,11.64,0,17.56,0
			c-2.97-5.57-5.78-10.85-8.8-16.5C323.17,230.77,320.38,236.02,317.45,241.55z" fill="white"/>
		<path d="M-23.21,282.49c-36.41,0-72.68,0-109.07,0c0-36.36,0-72.57,0-108.95c9.04,0,18.03,0,27.22,0c0,27.21,0,54.3,0,81.64
			c5.59,0.29,10.99,0.09,16.39,0.13c5.44,0.04,10.88,0.01,16.32,0.01c5.44,0,10.88,0,16.32,0s10.88,0,16.32,0
			c5.43,0,10.85,0,16.22,0C-22.94,257.24-22.76,277.64-23.21,282.49z" fill="white"/>
		<path d="M99.92,255.28c0,9.2,0,18.12,0,27.2c-36.32,0-72.57,0-108.98,0c0-36.32,0-72.58,0-108.98c9,0,17.93,0,27.13,0
			c0,27.23,0,54.37,0,81.78C45.5,255.28,72.63,255.28,99.92,255.28z" fill="white"/>
	</g>
</g>
</svg>
