<svg id="Warstwa_1" data-name="Warstwa 1" xmlns="http://www.w3.org/2000/svg" viewBox="0 0 392.9 138.08"><title>Screenshot_1</title><path d="M222,270.13a65.19,65.19,0,0,0-3.2-5.74c-9.51-13.65-3.2-37.59,21.39-40.25,10.64-1.15,20.1,1.67,27.46,9.83a25.47,25.47,0,0,1,2.1,31.2c-1.11,1.65-2.29,3.25-3.5,4.95a20.2,20.2,0,0,0,1.79,2c16,13.76,7.3,38.14-9.46,44.29-13.56,5-26.07,3.09-37.31-5.91-9.88-7.9-13.34-25.45-2.47-36.77C219.87,272.59,220.89,271.35,222,270.13Zm32.63,20.58c-.12-6-4.58-10.15-10.78-9.95A9.74,9.74,0,0,0,234,290.87a10.15,10.15,0,0,0,10.82,10A9.76,9.76,0,0,0,254.59,290.71ZM252.76,251a8.81,8.81,0,0,0-9-8.94,8.62,8.62,0,0,0,.81,17.23C249.48,259.1,252.83,255.72,252.76,251Z" transform="translate(-53.42 -181.69)" fill="white"/><path d="M291.78,270.17c-1.14-2-2.11-4.06-3.32-5.93-9.69-14.9-2-37.7,21.65-40.14a33.8,33.8,0,0,1,18.25,3c16.9,8,19.65,28.49,10,39.75-.81.94-1.46,2-2.3,3.2a31.85,31.85,0,0,0,2.69,3c13,11.61,7.12,31.43-3.12,39.19-13.19,10-34.52,8.61-46.18-3.15-8.48-8.56-11.06-24.88-.94-35.28C289.61,272.71,290.63,271.46,291.78,270.17Zm22.34,10.57c-5.94-.05-10.38,4.25-10.31,10a10.07,10.07,0,0,0,10.29,10.16,9.77,9.77,0,0,0,10.27-10C324.33,285,320.1,280.79,314.12,280.74Zm8.39-29.68a8.76,8.76,0,0,0-8.85-9.05,8.34,8.34,0,0,0-8.29,8.71,8.43,8.43,0,0,0,8.88,8.53C319.12,259.17,322.52,255.8,322.51,251.06Z" transform="translate(-53.42 -181.69)" fill="white"/><path d="M351,269.75c.19-8.57,1.14-17.45,4.65-25.91,9.17-22.05,34.83-24.05,48.37-14.58a29.13,29.13,0,0,1,9.53,11.18c8.84,19.64,9.44,39.87,1.86,60.07-5.08,13.53-16.08,18.93-29.74,19.24-12.81.3-22.13-5.75-27.95-17.22C352.57,292.35,351.23,281.41,351,269.75Zm21.54,1.82c.08,7.92.88,15.71,4.66,22.88,1.83,3.45,4.31,6.27,8.56,6.39,4.46.13,7.36-2.67,9-6.3,6.7-14.92,6.71-30-.1-44.89-1.73-3.8-4.71-6.44-9.35-6.33s-6.89,3.11-8.64,6.72C373.41,256.83,372.64,264.13,372.57,271.57Z" transform="translate(-53.42 -181.69)" fill="white"/><path d="M77.42,281V262.46c2.18-.35,4.15-.56,6.08-1,5.4-1.18,8-4.28,8.06-9.24,0-5.27-2.21-8.05-7.9-9.23-3.38-.71-6.88-.87-10.75-1.33v77.1H53.42V223.14c6.36,0,12.7-.39,19,.1,7.79.62,15.73,1.21,23.24,3.2,11.06,2.93,16.07,10.05,17,21.52,1.53,19-8,30.37-27.07,32.35C83,280.58,80.38,280.75,77.42,281Z" transform="translate(-53.42 -181.69)" fill="white"/><path d="M178,298.79c0,5.93.09,11.51-.12,17.08,0,.7-1.59,1.7-2.59,1.94-27.07,6.72-50.55-9.18-54.56-36.78a59.24,59.24,0,0,1,2.08-27c6.85-21.36,25.53-33.29,47.75-30.48,8.25,1.05,8.25,1.05,8.25,9.24v10.85c-10.82-2.62-20.72-2.33-29,5.22-6,5.5-8.7,12.66-9,20.74-.35,9.89,2.47,18.55,10.31,25S168.22,300.63,178,298.79Z" transform="translate(-53.42 -181.69)" fill="white"/><path d="M446.32,318.93H428.46V224.32h17.86Z" transform="translate(-53.42 -181.69)" fill="white"/><path d="M127.05,215.84c-8.13,0-14-5.41-12-11.54a22.05,22.05,0,0,0,.69-12.67c-.86-3.79,2-7.24,5.73-8.68,4.44-1.74,9.92-.61,12.81,2.63,2.59,2.9,2.91,7.11,1.13,10.84-.47,1-.7,2.76-.14,3.44,2.79,3.36,2.77,6.93,1,10.49A10.11,10.11,0,0,1,127.05,215.84Zm3-9,0-1.6c-1.36-1-2.81-2.78-4.07-2.66s-2.42,2.14-3.62,3.32c1.12,1.13,2.17,3.05,3.39,3.17S128.65,207.64,130.08,206.82Zm.21-14.93c-2-1.48-3.17-2.91-4.35-2.95-.94,0-1.94,1.61-2.92,2.51,1,1.05,1.83,2.64,3,3C126.9,194.63,128.21,193.18,130.29,191.89Z" transform="translate(-53.42 -181.69)" fill="white"/><path d="M151.1,215.84c-8.13,0-14.07-5.36-12.1-11.49,1.44-4.47,1.84-8.16.71-12.67-.94-3.73,2-7.26,5.67-8.71,4.42-1.76,9.93-.66,12.83,2.57,2.66,3,3,7,1.19,10.82-.47,1-.74,2.77-.19,3.45,2.74,3.36,2.84,6.9,1,10.49A10.11,10.11,0,0,1,151.1,215.84Zm3-9.14v-1.61c-1.38-.93-2.79-2.58-4.15-2.54-1.19,0-2.34,2-3.5,3,1.15,1.23,2.17,3.22,3.5,3.44S152.71,207.55,154.11,206.7Zm.17-15c-2.08-1.4-3.25-2.79-4.43-2.8-.93,0-1.88,1.68-2.82,2.62,1,1,1.92,2.57,3.11,2.84C151,194.6,152.27,193.1,154.28,191.74Z" transform="translate(-53.42 -181.69)" fill="white"/><path d="M214.27,199.45a75.83,75.83,0,0,1-1.81,8.66c-1.67,5.1-5.12,7.5-10.33,7.72s-8.75-1.91-10.86-6.94a26.8,26.8,0,0,1-.66-19c1.67-5.18,5.64-7.82,11.09-7.82s8.86,2.28,10.59,7.72A86.18,86.18,0,0,1,214.27,199.45ZM196.59,199c.73,2.73,1.08,5.51,2.22,7.91,1.38,2.92,4.05,2.81,5.82.12,2.4-3.65,2.34-12.79-.12-16.24-1.87-2.65-4.53-2.7-5.84.23C197.58,193.46,197.28,196.25,196.59,199Z" transform="translate(-53.42 -181.69)" fill="white"/><path d="M188,199.35a74.92,74.92,0,0,1-1.58,8.53c-1.68,5.48-5.18,8-10.77,8.19-5.19.18-8.83-2.21-10.84-7.53a27.55,27.55,0,0,1-.43-18.38,11,11,0,0,1,11-8c5.44,0,9.09,2.52,10.8,8.05A86.4,86.4,0,0,1,188,199.35Zm-17.63.09c.74,2.55,1.19,5.41,2.39,7.92s3.66,2.48,5.39.29c2.69-3.41,2.69-13.36,0-16.81-1.92-2.45-4.62-2.28-5.82.68C171.34,193.88,171,196.52,170.35,199.44Z" transform="translate(-53.42 -181.69)" fill="white"/><path d="M301.42,209.78c4.9.24,7.1-3.59,9.95-6.44,2.47-2.47,4.93-5,7.2-7.61a20.09,20.09,0,0,0,2.13-4,21,21,0,0,0-4.5-1.11c-4.82-.15-9.66-.06-14.76-.06v-6.11c6.42,0,12.75-.23,19.06.09,3.49.18,5.94,2.51,7,5.91a7.13,7.13,0,0,1-2.42,8.06,29,29,0,0,0-2.49,2.71c2.62,4.59,5.18,9.06,8,13.92-4.51.8-7.83,1.13-9.43-3.5-.63-1.81-2.09-3.33-3.28-5.13-5.17,3.76-8,11.43-16.45,8.52Z" transform="translate(-53.42 -181.69)" fill="white"/><path d="M53.55,181.69c4.6.29,9,.19,13.19.93,5.59,1,7.71,3.86,7.78,9.3s-2.52,8.66-7.8,9.9a43.27,43.27,0,0,1-4.48.56c-.05-3-2.13-6.26,2.77-7.47.8-.2,1.73-1.9,1.69-2.88a3.89,3.89,0,0,0-2-2.71c-1.11-.58-2.58-.47-4.41-.73v27H53.55Z" transform="translate(-53.42 -181.69)" fill="white"/><path d="M95.35,209.08c0,1.37-.09,2.5,0,3.6.24,2.34-1,2.93-3.06,3.12-11.94,1.12-20-9-17-21.47,1.84-7.53,7.15-12.08,14.42-12.38,5.89-.24,6.3.23,5.66,5.22-4.11,1.92-8.1,3-10.94,5.4-1.66,1.41-2,5-2,7.58C82.59,206.32,86.44,208.88,95.35,209.08Z" transform="translate(-53.42 -181.69)" fill="white"/><path d="M239.27,186h7.12c-.35,7.23-.22,14.42-1.22,21.46-.6,4.16-4.35,7-8.55,7.35-6,.51-12.15.13-18.47.13v-6.7c4.86,0,9.67,0,14.49,0,5.41,0,6.61-1.2,6.62-6.56C239.28,196.6,239.27,191.51,239.27,186Z" transform="translate(-53.42 -181.69)" fill="white"/><path d="M249.79,215.1v-6.44c3.55,0,7,0,10.4,0,5.1-.05,6.37-1.27,6.45-6.45.08-5.82,0-11.65,0-17.7h6.65c0,7.25.45,14.34-.13,21.35-.49,5.86-4.94,9.17-10.78,9.24C258.31,215.15,254.22,215.1,249.79,215.1Z" transform="translate(-53.42 -181.69)" fill="white"/><path d="M203.78,276.16H181.69V263.68h22.09Z" transform="translate(-53.42 -181.69)" fill="white"/><path d="M302.65,197.2v5.59H276.32V197.2Z" transform="translate(-53.42 -181.69)" fill="white"/><path d="M249.82,199.15V184.52h6.45v14.63Z" transform="translate(-53.42 -181.69)" fill="white"/><path d="M232.62,184.48v6.35c-4.39,0-8.58.12-12.76-.05-2.15-.09-2.39-1.31-1.49-6.3Z" transform="translate(-53.42 -181.69)" fill="white"/><path d="M218.26,194.17c4.28,0,8.47-.15,12.63.15.72.05,1.81,2,1.8,3.1s-1.14,3-1.88,3c-4.05.3-8.13.14-12.55.14Z" transform="translate(-53.42 -181.69)" fill="white"/><path d="M96.1,201.51v-4.58h16.07v4.58Z" transform="translate(-53.42 -181.69)" fill="white"/><path d="M343.63,187.24c-2.24,1.26-3.4,2.43-4.43,2.33s-2.47-1.78-2.32-2.43a4,4,0,0,1,2.59-2.66C340.37,184.34,341.51,185.75,343.63,187.24Z" transform="translate(-53.42 -181.69)" fill="white"/><path d="M336.7,187.07c-2.16,1.33-3.27,2.56-4.33,2.51s-2.55-1.67-2.43-2.35a4,4,0,0,1,2.47-2.75C333.36,184.33,334.55,185.69,336.7,187.07Z" transform="translate(-53.42 -181.69)" fill="white"/></svg>